HIERARCHY
ROOT Hips
{
    OFFSET 0.000000 0.000000 0.000000
    CHANNELS 6 Xposition Yposition Zposition Zrotation Xrotation Yrotation
    JOINT Spine
    {
        OFFSET -0.000000 7.897928 0.000000
        CHANNELS 3 Zrotation Xrotation Yrotation
        JOINT Spine1
        {
            OFFSET -0.000000 22.881742 0.000000
            CHANNELS 3 Zrotation Xrotation Yrotation
            JOINT Neck
            {
                OFFSET -0.000000 22.787771 2.071616
                CHANNELS 3 Zrotation Xrotation Yrotation
                JOINT Head
                {
                    OFFSET -0.000000 13.484266 -1.926324
                    CHANNELS 3 Zrotation Xrotation Yrotation
                    End Site
                    {
                        OFFSET -0.000000 24.079046 0.000000
                    }
                }
            }
            JOINT LeftShoulder
            {
                OFFSET 3.854963 21.096247 -0.110468
                CHANNELS 3 Zrotation Xrotation Yrotation
                JOINT LeftArm
                {
                    OFFSET 10.572188 0.000000 0.000000
                    CHANNELS 3 Zrotation Xrotation Yrotation
                    JOINT LeftForeArm
                    {
                        OFFSET 34.932854 0.000000 0.000000
                        CHANNELS 3 Zrotation Xrotation Yrotation
                        JOINT LeftHand
                        {
                            OFFSET 23.279285 0.000000 0.000000
                            CHANNELS 3 Zrotation Xrotation Yrotation
                            End Site
                            {
                                OFFSET 14.447429 0.000000 0.000000
                            }
                        }
                    }
                }
            }
            JOINT RightShoulder
            {
                OFFSET -3.825334 21.096247 -0.110468
                CHANNELS 3 Zrotation Xrotation Yrotation
                JOINT RightArm
                {
                    OFFSET -10.572188 0.000000 0.000000
                    CHANNELS 3 Zrotation Xrotation Yrotation
                    JOINT RightForeArm
                    {
                        OFFSET -34.932854 0.000000 0.000000
                        CHANNELS 3 Zrotation Xrotation Yrotation
                        JOINT RightHand
                        {
                            OFFSET -23.279285 0.000000 0.000000
                            CHANNELS 3 Zrotation Xrotation Yrotation
                            End Site
                            {
                                OFFSET -14.447429 0.000000 0.000000
                            }
                        }
                    }
                }
            }
        }
    }
    JOINT LeftUpLeg
    {
        OFFSET 9.631618 0.000000 0.000000
        CHANNELS 3 Zrotation Xrotation Yrotation
        JOINT LeftLeg
        {
            OFFSET -0.000000 -35.385456 0.000000
            CHANNELS 3 Zrotation Xrotation Yrotation
            JOINT LeftFoot
            {
                OFFSET -0.000000 -43.284000 0.000000
                CHANNELS 3 Zrotation Xrotation Yrotation
                JOINT LeftToeBase
                {
                    OFFSET -0.000000 -6.260552 14.447429
                    CHANNELS 3 Zrotation Xrotation Yrotation
                    End Site
                    {
                        OFFSET -0.000000 0.000000 3.852648
                    }
                }
            }
        }
    }
    JOINT RightUpLeg
    {
        OFFSET -9.631618 0.000000 0.000000
        CHANNELS 3 Zrotation Xrotation Yrotation
        JOINT RightLeg
        {
            OFFSET -0.000000 -35.385456 0.000000
            CHANNELS 3 Zrotation Xrotation Yrotation
            JOINT RightFoot
            {
                OFFSET -0.000000 -43.284000 0.000000
                CHANNELS 3 Zrotation Xrotation Yrotation
                JOINT RightToeBase
                {
                    OFFSET -0.000000 -6.260552 14.447429
                    CHANNELS 3 Zrotation Xrotation Yrotation
                    End Site
                    {
                        OFFSET -0.000000 0.000000 3.852648
                    }
                }
            }
        }
    }
}
MOTION
Frames:    4
Frame Time:    0.008333
57.929600    87.066231    18.998068    0.416257    -0.569231    85.265457    0.245560    -1.952491    -1.568678    1.467503    -0.807809    -1.562533    -1.651303    14.491759    -9.215525    7.581069    0.780117    -8.543459    17.109468    3.151988    3.715366    -17.257189    10.241104    -5.228337    4.012593    -7.654777    0.336254    -2.878215    -7.702474    1.446588    -14.847652    -0.250731    8.747322    13.123063    7.019457    1.264843    -0.259468    0.894783    -0.479794    4.959411    1.229447    7.741380    7.997778    5.152247    3.584870    -5.098898    7.902745    2.154165    -3.217659    -12.387262    15.116581    0.000000    0.000000    0.000000    -8.525744    -2.606889    -1.799632    4.346583    15.413092    -1.287739    4.736843    -11.181784    -9.041730    0.000000    0.000000    0.000000    
57.973648    87.067276    19.001736    0.431141    -0.567063    85.258057    0.222865    -1.985623    -1.557570    1.461526    -0.768200    -1.551643    -1.645830    14.468238    -9.263958    7.573795    0.814543    -8.596952    17.188389    3.137368    3.680896    -17.292433    10.214256    -5.180930    3.992776    -7.633341    0.256958    -2.894804    -7.678948    1.466464    -14.830814    -0.286526    8.709702    13.115853    7.030164    1.311913    -0.261129    0.783664    -0.487929    4.976568    1.121473    7.785647    7.995931    5.196236    3.609122    -5.099818    7.907588    2.131964    -3.183533    -12.372164    15.129220    0.000000    0.000000    0.000000    -8.530700    -2.582291    -1.725814    4.381447    15.374353    -1.333559    4.699210    -11.137766    -9.091243    0.000000    0.000000    0.000000    
57.992874    87.070671    19.003571    0.433361    -0.587059    85.245140    0.232742    -2.037280    -1.544421    1.451902    -0.647728    -1.540348    -1.594881    14.347249    -9.245793    7.566205    0.830475    -8.579116    17.287401    3.082084    3.725228    -17.333294    10.218625    -5.196986    3.985537    -7.665559    0.221840    -3.225766    -7.711898    1.386405    -14.863963    -0.365777    8.606958    13.141095    7.013757    1.397097    -0.296052    0.822931    -0.496311    5.208981    1.178236    7.828131    8.014569    5.212664    3.627807    -5.098412    7.917231    2.124763    -3.037357    -12.308110    15.157017    0.000000    0.000000    0.000000    -8.513412    -2.585656    -1.719089    4.373414    15.464494    -1.353489    4.732422    -11.184027    -9.042774    0.000000    0.000000    0.000000    
58.010578    87.069702    19.003437    0.431877    -0.592054    85.237198    0.239440    -2.057165    -1.541762    1.441024    -0.631085    -1.538130    -1.603702    14.352317    -9.250431    7.582314    0.811660    -8.580470    17.327465    3.081756    3.722385    -17.347113    10.183651    -5.188431    3.944106    -7.700604    0.241933    -3.238432    -7.743313    1.229816    -14.883114    -0.380375    8.593291    13.155316    6.947943    1.429181    -0.245676    0.739226    -0.499515    5.029062    1.081949    7.817138    8.015062    5.218369    3.647762    -5.092924    7.926805    2.136851    -3.216459    -12.394872    15.101246    0.000000    0.000000    0.000000    -8.507153    -2.589010    -1.705045    4.371427    15.474766    -1.383254    4.759347    -11.170437    -9.014771    0.000000    0.000000    0.000000    
